<?xml version="1.0" encoding="UTF-8"?>
<svg xmlns="http://www.w3.org/2000/svg" width="390" height="844" viewBox="0 0 390 844">
  <rect x="0" y="0" width="390" height="844" fill="#fff"/>
  <rect x="18" y="18" width="354" height="808" rx="28" fill="none" stroke="#111" stroke-width="2.6"/>
  <text x="36" y="62" font-family="ui-sans-serif, system-ui" font-size="16" fill="#111">Sign in</text>
  <path d="M18 82 H372" stroke="#111" stroke-width="1.6" opacity="0.9"/>
  <text x="40" y="140" font-family="ui-sans-serif, system-ui" font-size="12" fill="#111">Email</text>
  <rect x="40" y="152" width="310" height="44" rx="10" fill="none" stroke="#111" stroke-width="2.2"/>
  <text x="40" y="230" font-family="ui-sans-serif, system-ui" font-size="12" fill="#111">Password</text>
  <rect x="40" y="242" width="310" height="44" rx="10" fill="none" stroke="#111" stroke-width="2.2"/>
  <rect x="40" y="320" width="310" height="48" rx="14" fill="none" stroke="#111" stroke-width="2.6"/>
  <text x="195" y="351" text-anchor="middle" font-family="ui-sans-serif, system-ui" font-size="14" fill="#111">Continue</text>
  <text x="195" y="410" text-anchor="middle" font-family="ui-sans-serif, system-ui" font-size="12" fill="#111">or</text>
  <rect x="40" y="440" width="310" height="48" rx="14" fill="none" stroke="#111" stroke-width="2.2"/>
  <text x="195" y="471" text-anchor="middle" font-family="ui-sans-serif, system-ui" font-size="13" fill="#111">Create account</text>
  <text x="40" y="540" font-family="ui-sans-serif, system-ui" font-size="11" fill="#111">By continuing you agree: coaching tool, not therapy.</text>
  <g stroke="#111" stroke-width="0.9" opacity="0.22">
    <path d="M48 606 l70 -10"/>
    <path d="M46 614 l76 -10"/>
    <path d="M52 622 l64 -8"/>
  </g>
</svg>