<?xml version="1.0" encoding="UTF-8"?>
<svg xmlns="http://www.w3.org/2000/svg" width="390" height="844" viewBox="0 0 390 844">
  <rect x="0" y="0" width="390" height="844" fill="#fff"/>
  <rect x="18" y="18" width="354" height="808" rx="28" fill="none" stroke="#111" stroke-width="2.6"/>
  <text x="36" y="62" font-family="ui-sans-serif, system-ui" font-size="16" fill="#111">Home</text>
  <circle cx="350" cy="54" r="10" fill="none" stroke="#111" stroke-width="2"/>
  <path d="M346 54 h8" stroke="#111" stroke-width="1.8"/>
  <path d="M350 50 v8" stroke="#111" stroke-width="1.8"/>
  <path d="M18 82 H372" stroke="#111" stroke-width="1.6"/>
  <rect x="36" y="110" width="318" height="120" rx="18" fill="none" stroke="#111" stroke-width="2.3"/>
  <text x="56" y="144" font-family="ui-sans-serif, system-ui" font-size="13" fill="#111">Today</text>
  <text x="56" y="170" font-family="ui-sans-serif, system-ui" font-size="11" fill="#111">Daily check-in: due</text>
  <rect x="56" y="186" width="140" height="28" rx="10" fill="none" stroke="#111" stroke-width="2.0"/>
  <text x="126" y="206" text-anchor="middle" font-family="ui-sans-serif, system-ui" font-size="11" fill="#111">Start</text>
  <rect x="36" y="246" width="318" height="140" rx="18" fill="none" stroke="#111" stroke-width="2.2"/>
  <text x="56" y="280" font-family="ui-sans-serif, system-ui" font-size="13" fill="#111">This week</text>
  <text x="56" y="306" font-family="ui-sans-serif, system-ui" font-size="11" fill="#111">Weekly review: due</text>
  <rect x="56" y="324" width="180" height="28" rx="10" fill="none" stroke="#111" stroke-width="2.0"/>
  <text x="146" y="344" text-anchor="middle" font-family="ui-sans-serif, system-ui" font-size="11" fill="#111">Start weekly</text>
  <text x="56" y="368" font-family="ui-sans-serif, system-ui" font-size="10" fill="#111">Gentle note: no blame, just data.</text>
  <rect x="36" y="410" width="318" height="140" rx="18" fill="none" stroke="#111" stroke-width="2.0"/>
  <text x="56" y="444" font-family="ui-sans-serif, system-ui" font-size="12" fill="#111">Quick peek</text>
  <path d="M56 486 C110 456, 160 510, 220 478 S320 500, 338 462" fill="none" stroke="#111" stroke-width="2.0" stroke-linecap="round"/>
  <text x="56" y="530" font-family="ui-sans-serif, system-ui" font-size="10" fill="#111">Your trend (last 4–8 weeks)</text>
  <path d="M18 760 H372" stroke="#111" stroke-width="1.6"/>
  <text x="80" y="800" text-anchor="middle" font-family="ui-sans-serif, system-ui" font-size="11" fill="#111">Home</text>
  <text x="195" y="800" text-anchor="middle" font-family="ui-sans-serif, system-ui" font-size="11" fill="#111">Insights</text>
  <text x="310" y="800" text-anchor="middle" font-family="ui-sans-serif, system-ui" font-size="11" fill="#111">Achievements</text>
  <path d="M62 808 h36" stroke="#111" stroke-width="2.4"/>
</svg>