<?xml version="1.0" encoding="UTF-8"?>
<svg xmlns="http://www.w3.org/2000/svg" width="390" height="844" viewBox="0 0 390 844">
  <rect x="0" y="0" width="390" height="844" fill="#fff"/>
  <rect x="18" y="18" width="354" height="808" rx="28" fill="none" stroke="#111" stroke-width="2.6"/>

  <text x="36" y="62" font-family="ui-sans-serif, system-ui" font-size="16" fill="#111">Insights</text>
  <path d="M18 82 H372" stroke="#111" stroke-width="1.6"/>

  <rect x="36" y="110" width="318" height="160" rx="18" fill="none" stroke="#111" stroke-width="2.2"/>
  <text x="56" y="144" font-family="ui-sans-serif, system-ui" font-size="12" fill="#111">Triangle trend</text>
  <path d="M56 210 C110 180, 160 236, 220 204 S320 226, 338 188" fill="none" stroke="#111" stroke-width="2.0" stroke-linecap="round"/>
  <text x="56" y="246" font-family="ui-sans-serif, system-ui" font-size="10" fill="#111">Last 8 weeks</text>

  <rect x="36" y="286" width="318" height="140" rx="18" fill="none" stroke="#111" stroke-width="2.0"/>
  <text x="56" y="320" font-family="ui-sans-serif, system-ui" font-size="12" fill="#111">Highlights</text>
  <text x="56" y="348" font-family="ui-sans-serif, system-ui" font-size="11" fill="#111">• Intimacy trending up</text>
  <text x="56" y="372" font-family="ui-sans-serif, system-ui" font-size="11" fill="#111">• Passion flat (tiny novelty helps)</text>
  <text x="56" y="396" font-family="ui-sans-serif, system-ui" font-size="11" fill="#111">• Commitment steady</text>

  <rect x="36" y="440" width="318" height="150" rx="18" fill="none" stroke="#111" stroke-width="2.0"/>
  <text x="56" y="474" font-family="ui-sans-serif, system-ui" font-size="12" fill="#111">Compare perspectives</text>
  <text x="56" y="502" font-family="ui-sans-serif, system-ui" font-size="11" fill="#111">See your view vs your partner’s</text>
  <rect x="56" y="528" width="140" height="28" rx="10" fill="none" stroke="#111" stroke-width="2.0"/>
  <text x="126" y="548" text-anchor="middle" font-family="ui-sans-serif, system-ui" font-size="11" fill="#111">Open</text>

  <path d="M18 760 H372" stroke="#111" stroke-width="1.6"/>
  <text x="80" y="800" text-anchor="middle" font-family="ui-sans-serif, system-ui" font-size="11" fill="#111">Home</text>
  <text x="195" y="800" text-anchor="middle" font-family="ui-sans-serif, system-ui" font-size="11" fill="#111">Insights</text>
  <text x="310" y="800" text-anchor="middle" font-family="ui-sans-serif, system-ui" font-size="11" fill="#111">Achievements</text>
  <path d="M178 808 h36" stroke="#111" stroke-width="2.4"/>
</svg>
